<mxfile host="app.diagrams.net" modified="2023-06-09T06:40:36.617Z" agent="Mozilla/5.0 (Windows NT 10.0; Win64; x64) AppleWebKit/537.36 (KHTML, like Gecko) Chrome/113.0.0.0 Safari/537.36" etag="CMi6WL7My_aOvzuhcyfg" version="21.3.7" type="github">
  <diagram name="페이지-1" id="UvDw1jmTJ6SoQYcHiSoY">
    <mxGraphModel dx="1567" dy="807" grid="1" gridSize="10" guides="1" tooltips="1" connect="1" arrows="1" fold="1" page="1" pageScale="1" pageWidth="413" pageHeight="583" math="0" shadow="0">
      <root>
        <mxCell id="0" />
        <mxCell id="1" parent="0" />
        <mxCell id="RrBvVpDyBE-MLE_T4EEh-1" value="구매자" style="shape=umlActor;verticalLabelPosition=bottom;verticalAlign=top;html=1;" vertex="1" parent="1">
          <mxGeometry x="70" y="220" width="30" height="60" as="geometry" />
        </mxCell>
        <mxCell id="RrBvVpDyBE-MLE_T4EEh-3" value="회원가입" style="ellipse;whiteSpace=wrap;html=1;" vertex="1" parent="1">
          <mxGeometry x="150" y="100" width="140" height="30" as="geometry" />
        </mxCell>
        <mxCell id="RrBvVpDyBE-MLE_T4EEh-5" value="상품 검색" style="ellipse;whiteSpace=wrap;html=1;" vertex="1" parent="1">
          <mxGeometry x="150" y="150" width="140" height="30" as="geometry" />
        </mxCell>
        <mxCell id="RrBvVpDyBE-MLE_T4EEh-6" value="상품 조회" style="ellipse;whiteSpace=wrap;html=1;" vertex="1" parent="1">
          <mxGeometry x="400" y="150" width="140" height="30" as="geometry" />
        </mxCell>
        <mxCell id="RrBvVpDyBE-MLE_T4EEh-7" value="거래 요청" style="ellipse;whiteSpace=wrap;html=1;" vertex="1" parent="1">
          <mxGeometry x="150" y="200" width="140" height="30" as="geometry" />
        </mxCell>
        <mxCell id="RrBvVpDyBE-MLE_T4EEh-8" value="거래 취소" style="ellipse;whiteSpace=wrap;html=1;" vertex="1" parent="1">
          <mxGeometry x="150" y="250" width="140" height="30" as="geometry" />
        </mxCell>
        <mxCell id="RrBvVpDyBE-MLE_T4EEh-9" value="거래 완료" style="ellipse;whiteSpace=wrap;html=1;" vertex="1" parent="1">
          <mxGeometry x="150" y="300" width="140" height="30" as="geometry" />
        </mxCell>
        <mxCell id="RrBvVpDyBE-MLE_T4EEh-10" value="채팅" style="ellipse;whiteSpace=wrap;html=1;" vertex="1" parent="1">
          <mxGeometry x="150" y="350" width="140" height="30" as="geometry" />
        </mxCell>
        <mxCell id="RrBvVpDyBE-MLE_T4EEh-11" value="알림 확인" style="ellipse;whiteSpace=wrap;html=1;" vertex="1" parent="1">
          <mxGeometry x="150" y="400" width="140" height="30" as="geometry" />
        </mxCell>
        <mxCell id="RrBvVpDyBE-MLE_T4EEh-23" value="판매자" style="shape=umlActor;verticalLabelPosition=bottom;verticalAlign=top;html=1;" vertex="1" parent="1">
          <mxGeometry x="70" y="660" width="30" height="60" as="geometry" />
        </mxCell>
        <mxCell id="RrBvVpDyBE-MLE_T4EEh-27" value="상품 등록" style="ellipse;whiteSpace=wrap;html=1;" vertex="1" parent="1">
          <mxGeometry x="430" y="392.5" width="90" height="32.5" as="geometry" />
        </mxCell>
        <mxCell id="RrBvVpDyBE-MLE_T4EEh-28" value="거래 요청 거절" style="ellipse;whiteSpace=wrap;html=1;" vertex="1" parent="1">
          <mxGeometry x="150" y="730" width="140" height="30" as="geometry" />
        </mxCell>
        <mxCell id="RrBvVpDyBE-MLE_T4EEh-29" value="상품 삭제" style="ellipse;whiteSpace=wrap;html=1;" vertex="1" parent="1">
          <mxGeometry x="650" y="390" width="90" height="32.5" as="geometry" />
        </mxCell>
        <mxCell id="RrBvVpDyBE-MLE_T4EEh-30" value="거래 요청 수락" style="ellipse;whiteSpace=wrap;html=1;" vertex="1" parent="1">
          <mxGeometry x="150" y="675" width="140" height="30" as="geometry" />
        </mxCell>
        <mxCell id="RrBvVpDyBE-MLE_T4EEh-32" value="상품 수정" style="ellipse;whiteSpace=wrap;html=1;" vertex="1" parent="1">
          <mxGeometry x="540" y="390" width="90" height="35" as="geometry" />
        </mxCell>
        <mxCell id="RrBvVpDyBE-MLE_T4EEh-33" value="채팅" style="ellipse;whiteSpace=wrap;html=1;" vertex="1" parent="1">
          <mxGeometry x="150" y="780" width="140" height="30" as="geometry" />
        </mxCell>
        <mxCell id="RrBvVpDyBE-MLE_T4EEh-34" value="알림 확인" style="ellipse;whiteSpace=wrap;html=1;" vertex="1" parent="1">
          <mxGeometry x="150" y="840" width="140" height="30" as="geometry" />
        </mxCell>
        <mxCell id="RrBvVpDyBE-MLE_T4EEh-48" value="관리자" style="shape=umlActor;verticalLabelPosition=bottom;verticalAlign=top;html=1;" vertex="1" parent="1">
          <mxGeometry x="980" y="480" width="30" height="60" as="geometry" />
        </mxCell>
        <mxCell id="RrBvVpDyBE-MLE_T4EEh-49" value="회원 관리" style="ellipse;whiteSpace=wrap;html=1;" vertex="1" parent="1">
          <mxGeometry x="540" y="495" width="110" height="30" as="geometry" />
        </mxCell>
        <mxCell id="RrBvVpDyBE-MLE_T4EEh-50" value="상품 관리" style="ellipse;whiteSpace=wrap;html=1;" vertex="1" parent="1">
          <mxGeometry x="540" y="270" width="90" height="30" as="geometry" />
        </mxCell>
        <mxCell id="RrBvVpDyBE-MLE_T4EEh-51" value="거래 관리" style="ellipse;whiteSpace=wrap;html=1;" vertex="1" parent="1">
          <mxGeometry x="790" y="570" width="140" height="30" as="geometry" />
        </mxCell>
        <mxCell id="RrBvVpDyBE-MLE_T4EEh-52" value="리뷰 관리" style="ellipse;whiteSpace=wrap;html=1;" vertex="1" parent="1">
          <mxGeometry x="790" y="629.5" width="140" height="30" as="geometry" />
        </mxCell>
        <mxCell id="RrBvVpDyBE-MLE_T4EEh-54" value="리뷰 작성" style="ellipse;whiteSpace=wrap;html=1;" vertex="1" parent="1">
          <mxGeometry x="150" y="620" width="140" height="30" as="geometry" />
        </mxCell>
        <mxCell id="RrBvVpDyBE-MLE_T4EEh-59" value="회원가입" style="ellipse;whiteSpace=wrap;html=1;" vertex="1" parent="1">
          <mxGeometry x="150" y="570" width="140" height="30" as="geometry" />
        </mxCell>
        <mxCell id="RrBvVpDyBE-MLE_T4EEh-60" value="" style="endArrow=open;endFill=1;endSize=12;html=1;rounded=0;exitX=0.5;exitY=0;exitDx=0;exitDy=0;entryX=0.5;entryY=1;entryDx=0;entryDy=0;" edge="1" parent="1" source="RrBvVpDyBE-MLE_T4EEh-32" target="RrBvVpDyBE-MLE_T4EEh-50">
          <mxGeometry width="160" relative="1" as="geometry">
            <mxPoint x="550" y="330" as="sourcePoint" />
            <mxPoint x="710" y="330" as="targetPoint" />
          </mxGeometry>
        </mxCell>
        <mxCell id="RrBvVpDyBE-MLE_T4EEh-61" value="" style="line;strokeWidth=1;fillColor=none;align=left;verticalAlign=middle;spacingTop=-1;spacingLeft=3;spacingRight=3;rotatable=0;labelPosition=right;points=[];portConstraint=eastwest;strokeColor=inherit;" vertex="1" parent="1">
          <mxGeometry x="470" y="330" width="160" height="8" as="geometry" />
        </mxCell>
        <mxCell id="RrBvVpDyBE-MLE_T4EEh-64" value="" style="endArrow=none;html=1;rounded=0;exitX=0.5;exitY=0;exitDx=0;exitDy=0;" edge="1" parent="1" source="RrBvVpDyBE-MLE_T4EEh-27">
          <mxGeometry width="50" height="50" relative="1" as="geometry">
            <mxPoint x="400" y="380" as="sourcePoint" />
            <mxPoint x="475" y="330" as="targetPoint" />
            <Array as="points">
              <mxPoint x="475" y="350" />
            </Array>
          </mxGeometry>
        </mxCell>
        <mxCell id="RrBvVpDyBE-MLE_T4EEh-65" value="" style="line;strokeWidth=1;fillColor=none;align=left;verticalAlign=middle;spacingTop=-1;spacingLeft=3;spacingRight=3;rotatable=0;labelPosition=right;points=[];portConstraint=eastwest;strokeColor=inherit;" vertex="1" parent="1">
          <mxGeometry x="630" y="330" width="60" height="8" as="geometry" />
        </mxCell>
        <mxCell id="RrBvVpDyBE-MLE_T4EEh-66" value="" style="endArrow=none;html=1;rounded=0;" edge="1" parent="1">
          <mxGeometry width="50" height="50" relative="1" as="geometry">
            <mxPoint x="690" y="390" as="sourcePoint" />
            <mxPoint x="690" y="330" as="targetPoint" />
            <Array as="points" />
          </mxGeometry>
        </mxCell>
        <mxCell id="RrBvVpDyBE-MLE_T4EEh-71" value="" style="endArrow=open;endFill=1;endSize=12;html=1;rounded=0;exitX=0;exitY=0.3333333333333333;exitDx=0;exitDy=0;exitPerimeter=0;entryX=1;entryY=0.5;entryDx=0;entryDy=0;" edge="1" parent="1" source="RrBvVpDyBE-MLE_T4EEh-48" target="RrBvVpDyBE-MLE_T4EEh-49">
          <mxGeometry width="160" relative="1" as="geometry">
            <mxPoint x="750" y="490" as="sourcePoint" />
            <mxPoint x="910" y="490" as="targetPoint" />
          </mxGeometry>
        </mxCell>
        <mxCell id="RrBvVpDyBE-MLE_T4EEh-72" value="" style="endArrow=open;endFill=1;endSize=12;html=1;rounded=0;entryX=1;entryY=0.5;entryDx=0;entryDy=0;" edge="1" parent="1" target="RrBvVpDyBE-MLE_T4EEh-51">
          <mxGeometry width="160" relative="1" as="geometry">
            <mxPoint x="980" y="500" as="sourcePoint" />
            <mxPoint x="840" y="470" as="targetPoint" />
          </mxGeometry>
        </mxCell>
        <mxCell id="RrBvVpDyBE-MLE_T4EEh-73" value="" style="endArrow=open;endFill=1;endSize=12;html=1;rounded=0;entryX=1;entryY=0.5;entryDx=0;entryDy=0;exitX=0;exitY=0.3333333333333333;exitDx=0;exitDy=0;exitPerimeter=0;" edge="1" parent="1" source="RrBvVpDyBE-MLE_T4EEh-48" target="RrBvVpDyBE-MLE_T4EEh-52">
          <mxGeometry width="160" relative="1" as="geometry">
            <mxPoint x="980" y="510" as="sourcePoint" />
            <mxPoint x="840" y="700" as="targetPoint" />
          </mxGeometry>
        </mxCell>
        <mxCell id="RrBvVpDyBE-MLE_T4EEh-76" value="" style="endArrow=open;endFill=1;endSize=12;html=1;rounded=0;exitX=1;exitY=0.3333333333333333;exitDx=0;exitDy=0;exitPerimeter=0;entryX=0;entryY=0.5;entryDx=0;entryDy=0;" edge="1" parent="1" source="RrBvVpDyBE-MLE_T4EEh-1" target="RrBvVpDyBE-MLE_T4EEh-3">
          <mxGeometry width="160" relative="1" as="geometry">
            <mxPoint x="140" y="250" as="sourcePoint" />
            <mxPoint x="300" y="250" as="targetPoint" />
          </mxGeometry>
        </mxCell>
        <mxCell id="RrBvVpDyBE-MLE_T4EEh-78" value="" style="endArrow=open;endFill=1;endSize=12;html=1;rounded=0;entryX=0;entryY=0.5;entryDx=0;entryDy=0;" edge="1" parent="1" target="RrBvVpDyBE-MLE_T4EEh-5">
          <mxGeometry width="160" relative="1" as="geometry">
            <mxPoint x="100" y="240" as="sourcePoint" />
            <mxPoint x="300" y="250" as="targetPoint" />
          </mxGeometry>
        </mxCell>
        <mxCell id="RrBvVpDyBE-MLE_T4EEh-79" value="" style="endArrow=open;endFill=1;endSize=12;html=1;rounded=0;exitX=1;exitY=0.3333333333333333;exitDx=0;exitDy=0;exitPerimeter=0;entryX=0;entryY=0.5;entryDx=0;entryDy=0;" edge="1" parent="1" source="RrBvVpDyBE-MLE_T4EEh-1" target="RrBvVpDyBE-MLE_T4EEh-7">
          <mxGeometry width="160" relative="1" as="geometry">
            <mxPoint x="140" y="250" as="sourcePoint" />
            <mxPoint x="300" y="250" as="targetPoint" />
          </mxGeometry>
        </mxCell>
        <mxCell id="RrBvVpDyBE-MLE_T4EEh-80" value="" style="endArrow=open;endFill=1;endSize=12;html=1;rounded=0;exitX=1;exitY=0.3333333333333333;exitDx=0;exitDy=0;exitPerimeter=0;entryX=0;entryY=0.5;entryDx=0;entryDy=0;" edge="1" parent="1" source="RrBvVpDyBE-MLE_T4EEh-1" target="RrBvVpDyBE-MLE_T4EEh-8">
          <mxGeometry width="160" relative="1" as="geometry">
            <mxPoint x="140" y="250" as="sourcePoint" />
            <mxPoint x="300" y="250" as="targetPoint" />
          </mxGeometry>
        </mxCell>
        <mxCell id="RrBvVpDyBE-MLE_T4EEh-81" value="" style="endArrow=open;endFill=1;endSize=12;html=1;rounded=0;entryX=0;entryY=0.5;entryDx=0;entryDy=0;" edge="1" parent="1" target="RrBvVpDyBE-MLE_T4EEh-9">
          <mxGeometry width="160" relative="1" as="geometry">
            <mxPoint x="100" y="240" as="sourcePoint" />
            <mxPoint x="300" y="250" as="targetPoint" />
          </mxGeometry>
        </mxCell>
        <mxCell id="RrBvVpDyBE-MLE_T4EEh-82" value="" style="endArrow=open;endFill=1;endSize=12;html=1;rounded=0;exitX=1;exitY=0.3333333333333333;exitDx=0;exitDy=0;exitPerimeter=0;entryX=0;entryY=0.5;entryDx=0;entryDy=0;" edge="1" parent="1" source="RrBvVpDyBE-MLE_T4EEh-1" target="RrBvVpDyBE-MLE_T4EEh-10">
          <mxGeometry width="160" relative="1" as="geometry">
            <mxPoint x="140" y="250" as="sourcePoint" />
            <mxPoint x="300" y="250" as="targetPoint" />
          </mxGeometry>
        </mxCell>
        <mxCell id="RrBvVpDyBE-MLE_T4EEh-83" value="" style="endArrow=open;endFill=1;endSize=12;html=1;rounded=0;exitX=1;exitY=0.3333333333333333;exitDx=0;exitDy=0;exitPerimeter=0;entryX=0;entryY=0.5;entryDx=0;entryDy=0;" edge="1" parent="1" source="RrBvVpDyBE-MLE_T4EEh-1" target="RrBvVpDyBE-MLE_T4EEh-11">
          <mxGeometry width="160" relative="1" as="geometry">
            <mxPoint x="140" y="250" as="sourcePoint" />
            <mxPoint x="320" y="310" as="targetPoint" />
            <Array as="points" />
          </mxGeometry>
        </mxCell>
        <mxCell id="RrBvVpDyBE-MLE_T4EEh-84" value="" style="endArrow=open;endFill=1;endSize=12;html=1;rounded=0;exitX=1;exitY=0.3333333333333333;exitDx=0;exitDy=0;exitPerimeter=0;entryX=0;entryY=0.5;entryDx=0;entryDy=0;" edge="1" parent="1" source="RrBvVpDyBE-MLE_T4EEh-23" target="RrBvVpDyBE-MLE_T4EEh-59">
          <mxGeometry width="160" relative="1" as="geometry">
            <mxPoint x="140" y="750" as="sourcePoint" />
            <mxPoint x="300" y="750" as="targetPoint" />
          </mxGeometry>
        </mxCell>
        <mxCell id="RrBvVpDyBE-MLE_T4EEh-86" value="" style="endArrow=open;endFill=1;endSize=12;html=1;rounded=0;entryX=0;entryY=0.5;entryDx=0;entryDy=0;" edge="1" parent="1" target="RrBvVpDyBE-MLE_T4EEh-54">
          <mxGeometry width="160" relative="1" as="geometry">
            <mxPoint x="100" y="680" as="sourcePoint" />
            <mxPoint x="300" y="750" as="targetPoint" />
          </mxGeometry>
        </mxCell>
        <mxCell id="RrBvVpDyBE-MLE_T4EEh-87" value="" style="endArrow=open;endFill=1;endSize=12;html=1;rounded=0;exitX=1;exitY=0.3333333333333333;exitDx=0;exitDy=0;exitPerimeter=0;entryX=0;entryY=0.5;entryDx=0;entryDy=0;" edge="1" parent="1" source="RrBvVpDyBE-MLE_T4EEh-23" target="RrBvVpDyBE-MLE_T4EEh-30">
          <mxGeometry width="160" relative="1" as="geometry">
            <mxPoint x="140" y="750" as="sourcePoint" />
            <mxPoint x="300" y="750" as="targetPoint" />
          </mxGeometry>
        </mxCell>
        <mxCell id="RrBvVpDyBE-MLE_T4EEh-89" value="" style="endArrow=open;endFill=1;endSize=12;html=1;rounded=0;entryX=0;entryY=0.5;entryDx=0;entryDy=0;" edge="1" parent="1" target="RrBvVpDyBE-MLE_T4EEh-28">
          <mxGeometry width="160" relative="1" as="geometry">
            <mxPoint x="100" y="680" as="sourcePoint" />
            <mxPoint x="300" y="750" as="targetPoint" />
          </mxGeometry>
        </mxCell>
        <mxCell id="RrBvVpDyBE-MLE_T4EEh-90" value="" style="endArrow=open;endFill=1;endSize=12;html=1;rounded=0;entryX=0;entryY=0.5;entryDx=0;entryDy=0;" edge="1" parent="1" target="RrBvVpDyBE-MLE_T4EEh-33">
          <mxGeometry width="160" relative="1" as="geometry">
            <mxPoint x="100" y="680" as="sourcePoint" />
            <mxPoint x="300" y="750" as="targetPoint" />
          </mxGeometry>
        </mxCell>
        <mxCell id="RrBvVpDyBE-MLE_T4EEh-91" value="" style="endArrow=open;endFill=1;endSize=12;html=1;rounded=0;exitX=1;exitY=0.3333333333333333;exitDx=0;exitDy=0;exitPerimeter=0;entryX=0;entryY=0.5;entryDx=0;entryDy=0;" edge="1" parent="1" source="RrBvVpDyBE-MLE_T4EEh-23" target="RrBvVpDyBE-MLE_T4EEh-34">
          <mxGeometry width="160" relative="1" as="geometry">
            <mxPoint x="140" y="750" as="sourcePoint" />
            <mxPoint x="300" y="750" as="targetPoint" />
          </mxGeometry>
        </mxCell>
        <mxCell id="RrBvVpDyBE-MLE_T4EEh-93" value="회원 삭제" style="ellipse;whiteSpace=wrap;html=1;" vertex="1" parent="1">
          <mxGeometry x="620" y="570" width="100" height="30" as="geometry" />
        </mxCell>
        <mxCell id="RrBvVpDyBE-MLE_T4EEh-95" value="" style="line;strokeWidth=1;fillColor=none;align=left;verticalAlign=middle;spacingTop=-1;spacingLeft=3;spacingRight=3;rotatable=0;labelPosition=right;points=[];portConstraint=eastwest;strokeColor=inherit;" vertex="1" parent="1">
          <mxGeometry x="520" y="550" width="150" height="8" as="geometry" />
        </mxCell>
        <mxCell id="RrBvVpDyBE-MLE_T4EEh-96" value="" style="endArrow=none;html=1;rounded=0;exitX=0.5;exitY=0;exitDx=0;exitDy=0;" edge="1" parent="1" source="RrBvVpDyBE-MLE_T4EEh-92">
          <mxGeometry width="50" height="50" relative="1" as="geometry">
            <mxPoint x="521" y="600" as="sourcePoint" />
            <mxPoint x="520" y="550" as="targetPoint" />
          </mxGeometry>
        </mxCell>
        <mxCell id="RrBvVpDyBE-MLE_T4EEh-97" value="" style="endArrow=none;html=1;rounded=0;entryX=1.008;entryY=0.542;entryDx=0;entryDy=0;entryPerimeter=0;" edge="1" parent="1" target="RrBvVpDyBE-MLE_T4EEh-95">
          <mxGeometry width="50" height="50" relative="1" as="geometry">
            <mxPoint x="671" y="570" as="sourcePoint" />
            <mxPoint x="530" y="554" as="targetPoint" />
            <Array as="points" />
          </mxGeometry>
        </mxCell>
        <mxCell id="RrBvVpDyBE-MLE_T4EEh-98" value="" style="endArrow=open;endFill=1;endSize=12;html=1;rounded=0;exitX=0.499;exitY=0.319;exitDx=0;exitDy=0;exitPerimeter=0;entryX=0.5;entryY=1;entryDx=0;entryDy=0;" edge="1" parent="1" source="RrBvVpDyBE-MLE_T4EEh-95" target="RrBvVpDyBE-MLE_T4EEh-49">
          <mxGeometry width="160" relative="1" as="geometry">
            <mxPoint x="890" y="450" as="sourcePoint" />
            <mxPoint x="1050" y="450" as="targetPoint" />
          </mxGeometry>
        </mxCell>
        <mxCell id="RrBvVpDyBE-MLE_T4EEh-99" value="" style="endArrow=none;html=1;rounded=0;entryX=0.5;entryY=0;entryDx=0;entryDy=0;" edge="1" parent="1" target="RrBvVpDyBE-MLE_T4EEh-92">
          <mxGeometry width="50" height="50" relative="1" as="geometry">
            <mxPoint x="521" y="600" as="sourcePoint" />
            <mxPoint x="480" y="600" as="targetPoint" />
          </mxGeometry>
        </mxCell>
        <mxCell id="RrBvVpDyBE-MLE_T4EEh-92" value="회원 조회" style="ellipse;whiteSpace=wrap;html=1;" vertex="1" parent="1">
          <mxGeometry x="470" y="570" width="100" height="30" as="geometry" />
        </mxCell>
        <mxCell id="RrBvVpDyBE-MLE_T4EEh-101" value="&amp;lt;&amp;lt;extend&amp;gt;&amp;gt;" style="endArrow=open;endSize=12;dashed=1;html=1;rounded=0;exitX=0;exitY=0.5;exitDx=0;exitDy=0;entryX=1;entryY=0.5;entryDx=0;entryDy=0;" edge="1" parent="1" source="RrBvVpDyBE-MLE_T4EEh-6" target="RrBvVpDyBE-MLE_T4EEh-5">
          <mxGeometry width="160" relative="1" as="geometry">
            <mxPoint x="310" y="230" as="sourcePoint" />
            <mxPoint x="470" y="230" as="targetPoint" />
            <Array as="points" />
          </mxGeometry>
        </mxCell>
        <mxCell id="RrBvVpDyBE-MLE_T4EEh-107" value="로그인" style="ellipse;whiteSpace=wrap;html=1;" vertex="1" parent="1">
          <mxGeometry x="320" y="495" width="140" height="30" as="geometry" />
        </mxCell>
        <mxCell id="RrBvVpDyBE-MLE_T4EEh-109" value="" style="endArrow=open;endFill=1;endSize=12;html=1;rounded=0;exitX=1;exitY=0.3333333333333333;exitDx=0;exitDy=0;exitPerimeter=0;" edge="1" parent="1" source="RrBvVpDyBE-MLE_T4EEh-23">
          <mxGeometry width="160" relative="1" as="geometry">
            <mxPoint x="50" y="410" as="sourcePoint" />
            <mxPoint x="540" y="285" as="targetPoint" />
          </mxGeometry>
        </mxCell>
        <mxCell id="RrBvVpDyBE-MLE_T4EEh-110" value="&amp;lt;&amp;lt;include&amp;gt;&amp;gt;" style="endArrow=open;endSize=12;dashed=1;html=1;rounded=0;" edge="1" parent="1">
          <mxGeometry width="160" relative="1" as="geometry">
            <mxPoint x="540" y="280" as="sourcePoint" />
            <mxPoint x="400" y="490" as="targetPoint" />
          </mxGeometry>
        </mxCell>
        <mxCell id="RrBvVpDyBE-MLE_T4EEh-111" value="&amp;lt;&amp;lt;include&amp;gt;&amp;gt;" style="endArrow=open;endSize=12;dashed=1;html=1;rounded=0;exitX=1;exitY=0.5;exitDx=0;exitDy=0;entryX=0.5;entryY=0;entryDx=0;entryDy=0;" edge="1" parent="1" source="RrBvVpDyBE-MLE_T4EEh-7" target="RrBvVpDyBE-MLE_T4EEh-107">
          <mxGeometry width="160" relative="1" as="geometry">
            <mxPoint x="210" y="550" as="sourcePoint" />
            <mxPoint x="370" y="550" as="targetPoint" />
          </mxGeometry>
        </mxCell>
        <mxCell id="RrBvVpDyBE-MLE_T4EEh-112" value="&amp;lt;&amp;lt;include&amp;gt;&amp;gt;" style="endArrow=open;endSize=12;dashed=1;html=1;rounded=0;exitX=1;exitY=0.5;exitDx=0;exitDy=0;entryX=0.5;entryY=0;entryDx=0;entryDy=0;" edge="1" parent="1" source="RrBvVpDyBE-MLE_T4EEh-8" target="RrBvVpDyBE-MLE_T4EEh-107">
          <mxGeometry width="160" relative="1" as="geometry">
            <mxPoint x="210" y="550" as="sourcePoint" />
            <mxPoint x="370" y="550" as="targetPoint" />
          </mxGeometry>
        </mxCell>
        <mxCell id="RrBvVpDyBE-MLE_T4EEh-113" value="&amp;lt;&amp;lt;include&amp;gt;&amp;gt;" style="endArrow=open;endSize=12;dashed=1;html=1;rounded=0;exitX=1;exitY=0.5;exitDx=0;exitDy=0;entryX=0.5;entryY=0;entryDx=0;entryDy=0;" edge="1" parent="1" source="RrBvVpDyBE-MLE_T4EEh-9" target="RrBvVpDyBE-MLE_T4EEh-107">
          <mxGeometry width="160" relative="1" as="geometry">
            <mxPoint x="210" y="550" as="sourcePoint" />
            <mxPoint x="370" y="550" as="targetPoint" />
          </mxGeometry>
        </mxCell>
        <mxCell id="RrBvVpDyBE-MLE_T4EEh-114" value="&amp;lt;&amp;lt;include&amp;gt;&amp;gt;" style="endArrow=open;endSize=12;dashed=1;html=1;rounded=0;exitX=1;exitY=0.5;exitDx=0;exitDy=0;entryX=0.5;entryY=0;entryDx=0;entryDy=0;" edge="1" parent="1" source="RrBvVpDyBE-MLE_T4EEh-10" target="RrBvVpDyBE-MLE_T4EEh-107">
          <mxGeometry width="160" relative="1" as="geometry">
            <mxPoint x="210" y="550" as="sourcePoint" />
            <mxPoint x="370" y="550" as="targetPoint" />
          </mxGeometry>
        </mxCell>
        <mxCell id="RrBvVpDyBE-MLE_T4EEh-115" value="&amp;lt;&amp;lt;include&amp;gt;&amp;gt;" style="endArrow=open;endSize=12;dashed=1;html=1;rounded=0;exitX=1;exitY=0.5;exitDx=0;exitDy=0;entryX=0.409;entryY=0.99;entryDx=0;entryDy=0;entryPerimeter=0;" edge="1" parent="1" source="RrBvVpDyBE-MLE_T4EEh-54" target="RrBvVpDyBE-MLE_T4EEh-107">
          <mxGeometry width="160" relative="1" as="geometry">
            <mxPoint x="210" y="550" as="sourcePoint" />
            <mxPoint x="370" y="550" as="targetPoint" />
          </mxGeometry>
        </mxCell>
        <mxCell id="RrBvVpDyBE-MLE_T4EEh-116" value="&amp;lt;&amp;lt;include&amp;gt;&amp;gt;" style="endArrow=open;endSize=12;dashed=1;html=1;rounded=0;exitX=1;exitY=0.5;exitDx=0;exitDy=0;" edge="1" parent="1" source="RrBvVpDyBE-MLE_T4EEh-30">
          <mxGeometry width="160" relative="1" as="geometry">
            <mxPoint x="210" y="550" as="sourcePoint" />
            <mxPoint x="380" y="530" as="targetPoint" />
          </mxGeometry>
        </mxCell>
        <mxCell id="RrBvVpDyBE-MLE_T4EEh-117" value="&amp;lt;&amp;lt;include&amp;gt;&amp;gt;" style="endArrow=open;endSize=12;dashed=1;html=1;rounded=0;exitX=1;exitY=0.5;exitDx=0;exitDy=0;" edge="1" parent="1" source="RrBvVpDyBE-MLE_T4EEh-28">
          <mxGeometry width="160" relative="1" as="geometry">
            <mxPoint x="210" y="550" as="sourcePoint" />
            <mxPoint x="380" y="530" as="targetPoint" />
          </mxGeometry>
        </mxCell>
        <mxCell id="RrBvVpDyBE-MLE_T4EEh-118" value="&amp;lt;&amp;lt;include&amp;gt;&amp;gt;" style="endArrow=open;endSize=12;dashed=1;html=1;rounded=0;exitX=1;exitY=0.5;exitDx=0;exitDy=0;entryX=0.5;entryY=1;entryDx=0;entryDy=0;" edge="1" parent="1" source="RrBvVpDyBE-MLE_T4EEh-33" target="RrBvVpDyBE-MLE_T4EEh-107">
          <mxGeometry width="160" relative="1" as="geometry">
            <mxPoint x="210" y="550" as="sourcePoint" />
            <mxPoint x="370" y="550" as="targetPoint" />
          </mxGeometry>
        </mxCell>
        <mxCell id="RrBvVpDyBE-MLE_T4EEh-119" value="&amp;lt;include&amp;gt;&amp;gt;" style="endArrow=open;endSize=12;dashed=1;html=1;rounded=0;exitX=0;exitY=0.5;exitDx=0;exitDy=0;entryX=1;entryY=0.5;entryDx=0;entryDy=0;" edge="1" parent="1" source="RrBvVpDyBE-MLE_T4EEh-49" target="RrBvVpDyBE-MLE_T4EEh-107">
          <mxGeometry width="160" relative="1" as="geometry">
            <mxPoint x="480" y="700" as="sourcePoint" />
            <mxPoint x="640" y="700" as="targetPoint" />
          </mxGeometry>
        </mxCell>
        <mxCell id="RrBvVpDyBE-MLE_T4EEh-120" value="&amp;lt;&amp;lt;include&amp;gt;&amp;gt;" style="endArrow=open;endSize=12;dashed=1;html=1;rounded=0;exitX=0;exitY=0.5;exitDx=0;exitDy=0;" edge="1" parent="1" source="RrBvVpDyBE-MLE_T4EEh-51">
          <mxGeometry width="160" relative="1" as="geometry">
            <mxPoint x="480" y="700" as="sourcePoint" />
            <mxPoint x="450" y="510" as="targetPoint" />
          </mxGeometry>
        </mxCell>
        <mxCell id="RrBvVpDyBE-MLE_T4EEh-121" value="&amp;lt;&amp;lt;include&amp;gt;&amp;gt;" style="endArrow=open;endSize=12;dashed=1;html=1;rounded=0;exitX=0;exitY=0.5;exitDx=0;exitDy=0;" edge="1" parent="1" source="RrBvVpDyBE-MLE_T4EEh-52">
          <mxGeometry width="160" relative="1" as="geometry">
            <mxPoint x="480" y="700" as="sourcePoint" />
            <mxPoint x="450" y="510" as="targetPoint" />
          </mxGeometry>
        </mxCell>
        <mxCell id="RrBvVpDyBE-MLE_T4EEh-122" value="중고거래 앱" style="shape=umlFrame;whiteSpace=wrap;html=1;pointerEvents=0;" vertex="1" parent="1">
          <mxGeometry x="30" y="70" width="1110" height="830" as="geometry" />
        </mxCell>
      </root>
    </mxGraphModel>
  </diagram>
</mxfile>
